<svg xmlns="http://www.w3.org/2000/svg" width="1254" height="1254" viewBox="0 0 1254 1254">
  <path d="M 565 753 L 557 754 L 551 755 L 547 756 L 544 757 L 541 758 L 538 759 L 532 762 L 530 764 L 527 765 L 524 767 L 512 779 L 510 782 L 509 785 L 507 787 L 505 791 L 505 793 L 503 796 L 502 800 L 501 804 L 500 811 L 500 821 L 501 828 L 502 832 L 503 835 L 504 838 L 509 848 L 511 851 L 513 854 L 516 858 L 525 867 L 530 871 L 534 874 L 537 876 L 540 878 L 543 880 L 546 881 L 548 883 L 551 885 L 554 886 L 557 888 L 559 890 L 562 891 L 565 893 L 568 895 L 571 897 L 574 899 L 577 901 L 585 908 L 589 912 L 593 917 L 595 920 L 598 926 L 599 929 L 600 933 L 601 939 L 601 945 L 600 953 L 599 957 L 598 960 L 597 963 L 594 968 L 594 970 L 592 972 L 590 977 L 588 980 L 586 983 L 583 987 L 579 992 L 572 1000 L 568 1004 L 558 1013 L 552 1018 L 548 1021 L 545 1023 L 541 1026 L 538 1028 L 535 1030 L 532 1032 L 529 1033 L 527 1035 L 522 1037 L 520 1039 L 505 1046 L 503 1047 L 509 1047 L 514 1046 L 520 1045 L 525 1044 L 530 1043 L 534 1042 L 538 1041 L 541 1040 L 544 1039 L 548 1038 L 551 1037 L 554 1036 L 557 1035 L 560 1033 L 562 1033 L 565 1031 L 567 1031 L 574 1027 L 576 1027 L 578 1026 L 580 1024 L 587 1021 L 589 1019 L 592 1018 L 595 1016 L 598 1014 L 601 1012 L 605 1009 L 609 1006 L 620 996 L 622 994 L 628 987 L 632 982 L 635 978 L 636 975 L 638 973 L 640 970 L 644 962 L 644 960 L 647 955 L 648 952 L 649 949 L 650 945 L 651 940 L 652 931 L 652 923 L 651 916 L 650 911 L 649 908 L 648 905 L 642 893 L 640 890 L 636 885 L 626 875 L 620 870 L 617 868 L 614 866 L 611 864 L 608 862 L 605 861 L 603 859 L 600 857 L 595 855 L 593 853 L 586 850 L 584 848 L 581 847 L 578 845 L 575 843 L 572 841 L 568 838 L 558 828 L 556 825 L 555 823 L 554 820 L 553 816 L 553 810 L 554 807 L 555 804 L 556 802 L 558 799 L 565 792 L 568 790 L 570 789 L 572 789 L 575 787 L 579 786 L 586 785 L 595 785 L 602 786 L 607 787 L 611 788 L 614 789 L 617 790 L 622 793 L 624 793 L 628 795 L 630 797 L 637 800 L 640 802 L 643 804 L 647 807 L 652 811 L 667 826 L 666 824 L 666 822 L 665 819 L 663 816 L 663 814 L 657 802 L 655 799 L 653 796 L 650 792 L 643 784 L 640 781 L 634 776 L 630 773 L 627 771 L 624 769 L 621 768 L 619 766 L 611 762 L 609 762 L 604 759 L 600 758 L 597 757 L 593 756 L 589 755 L 583 754 L 573 753 Z M 793 635 L 792 637 L 791 639 L 789 641 L 785 650 L 783 652 L 779 661 L 777 663 L 773 672 L 771 674 L 768 681 L 766 683 L 762 692 L 760 694 L 755 705 L 753 707 L 751 712 L 749 714 L 745 723 L 743 725 L 741 730 L 739 732 L 735 741 L 733 743 L 731 748 L 729 750 L 725 759 L 723 761 L 721 766 L 721 769 L 724 775 L 724 777 L 727 782 L 727 784 L 729 787 L 729 789 L 732 794 L 733 797 L 733 799 L 735 802 L 735 804 L 737 807 L 737 809 L 739 812 L 740 815 L 740 817 L 742 820 L 743 823 L 743 825 L 745 828 L 745 830 L 747 833 L 748 836 L 749 839 L 749 841 L 751 844 L 752 847 L 752 849 L 754 852 L 755 855 L 756 858 L 757 860 L 760 856 L 762 853 L 764 850 L 766 847 L 769 843 L 771 840 L 772 837 L 774 835 L 776 832 L 778 827 L 780 825 L 782 820 L 784 818 L 791 804 L 791 802 L 795 795 L 795 793 L 797 790 L 797 788 L 800 783 L 801 780 L 802 777 L 803 774 L 804 771 L 805 768 L 806 765 L 807 761 L 808 758 L 809 754 L 810 749 L 811 744 L 812 738 L 813 731 L 813 699 L 812 691 L 811 685 L 810 680 L 809 676 L 808 672 L 807 668 L 806 665 L 805 662 L 804 659 L 803 656 L 800 651 L 800 649 L 794 637 Z M 533 542 L 531 542 L 528 543 L 525 544 L 518 548 L 516 548 L 508 552 L 506 554 L 503 555 L 501 557 L 498 558 L 495 560 L 492 562 L 489 564 L 485 567 L 480 571 L 472 578 L 464 586 L 457 594 L 453 599 L 450 603 L 448 606 L 445 610 L 444 613 L 442 615 L 441 618 L 439 620 L 438 623 L 436 625 L 428 641 L 428 643 L 425 648 L 425 650 L 423 653 L 422 656 L 421 659 L 421 661 L 419 664 L 418 668 L 417 671 L 416 674 L 415 678 L 414 682 L 413 685 L 412 690 L 411 694 L 410 700 L 409 706 L 408 712 L 407 724 L 409 723 L 415 720 L 417 720 L 430 713 L 432 713 L 441 708 L 443 708 L 448 705 L 450 705 L 459 700 L 461 700 L 464 698 L 466 698 L 471 695 L 473 695 L 478 692 L 480 692 L 483 690 L 485 690 L 490 687 L 492 687 L 495 685 L 497 685 L 500 683 L 503 682 L 503 677 L 504 672 L 505 667 L 506 663 L 507 658 L 508 653 L 509 649 L 510 645 L 511 640 L 512 636 L 513 631 L 514 627 L 515 622 L 516 618 L 517 614 L 518 610 L 519 605 L 520 601 L 521 597 L 522 592 L 523 588 L 525 584 L 526 580 L 527 575 L 528 571 L 529 567 L 529 563 L 531 558 L 532 554 L 533 550 L 534 546 L 534 543 L 535 541 Z M 843 202 L 839 203 L 835 204 L 832 205 L 829 206 L 825 207 L 822 208 L 819 209 L 816 210 L 813 211 L 810 213 L 808 213 L 805 214 L 800 217 L 798 217 L 793 220 L 791 220 L 767 232 L 765 234 L 760 236 L 758 238 L 755 239 L 753 241 L 750 242 L 747 244 L 744 246 L 741 248 L 738 250 L 735 252 L 731 255 L 728 257 L 724 260 L 719 264 L 714 268 L 708 273 L 700 280 L 677 303 L 669 312 L 664 318 L 660 323 L 656 328 L 653 332 L 650 336 L 647 340 L 645 343 L 642 347 L 640 350 L 638 353 L 636 356 L 635 359 L 633 361 L 631 364 L 630 367 L 628 369 L 627 372 L 625 374 L 624 377 L 622 379 L 616 392 L 614 394 L 605 412 L 605 414 L 601 421 L 601 423 L 597 430 L 597 432 L 594 437 L 594 439 L 592 442 L 592 444 L 590 447 L 590 449 L 588 452 L 588 454 L 586 457 L 586 459 L 584 462 L 583 465 L 582 468 L 582 470 L 580 473 L 579 476 L 578 479 L 577 482 L 576 485 L 576 487 L 574 490 L 573 493 L 572 496 L 571 499 L 570 502 L 569 505 L 568 509 L 567 512 L 566 515 L 565 518 L 564 521 L 563 525 L 562 528 L 561 531 L 560 535 L 559 538 L 558 542 L 557 546 L 556 549 L 555 553 L 554 557 L 553 560 L 552 564 L 551 568 L 550 571 L 549 576 L 548 580 L 547 584 L 546 588 L 545 592 L 544 596 L 543 600 L 542 604 L 541 608 L 540 612 L 539 617 L 538 621 L 537 626 L 536 630 L 535 635 L 534 639 L 533 644 L 532 649 L 531 654 L 530 659 L 529 665 L 528 670 L 527 675 L 526 680 L 525 685 L 524 691 L 523 697 L 522 702 L 521 708 L 520 714 L 519 719 L 518 725 L 518 729 L 521 728 L 524 727 L 527 725 L 531 724 L 534 723 L 538 722 L 543 721 L 548 720 L 555 719 L 568 718 L 568 716 L 569 713 L 570 710 L 571 707 L 572 703 L 573 700 L 574 697 L 575 694 L 576 691 L 577 688 L 578 685 L 579 682 L 580 679 L 581 676 L 582 673 L 583 669 L 584 666 L 586 663 L 587 660 L 587 657 L 588 654 L 589 651 L 590 648 L 591 645 L 592 642 L 593 639 L 594 636 L 595 633 L 596 630 L 597 627 L 598 624 L 599 621 L 600 618 L 601 615 L 602 612 L 603 609 L 604 606 L 605 603 L 606 600 L 607 597 L 608 594 L 609 591 L 610 588 L 611 584 L 612 581 L 614 578 L 614 575 L 615 572 L 616 569 L 617 566 L 618 563 L 619 560 L 620 557 L 621 554 L 622 551 L 623 548 L 624 545 L 625 542 L 626 539 L 627 536 L 628 533 L 629 530 L 630 527 L 631 524 L 632 521 L 633 518 L 634 515 L 635 512 L 639 509 L 639 511 L 642 516 L 642 518 L 644 521 L 644 523 L 647 528 L 647 530 L 649 533 L 649 535 L 652 540 L 652 542 L 654 545 L 654 547 L 656 550 L 656 552 L 659 557 L 659 559 L 661 562 L 661 564 L 663 567 L 663 569 L 666 574 L 666 576 L 668 579 L 668 581 L 671 586 L 671 588 L 673 591 L 673 593 L 675 596 L 675 598 L 678 603 L 678 605 L 680 608 L 680 610 L 683 615 L 683 617 L 685 620 L 685 622 L 687 625 L 687 627 L 688 629 L 689 631 L 690 629 L 692 626 L 692 624 L 697 615 L 697 613 L 702 604 L 702 602 L 706 595 L 706 593 L 709 588 L 709 586 L 713 579 L 713 577 L 716 572 L 716 570 L 720 563 L 720 561 L 723 556 L 723 554 L 727 547 L 727 545 L 731 537 L 734 536 L 737 537 L 740 539 L 742 539 L 745 541 L 747 541 L 750 543 L 752 543 L 755 544 L 757 546 L 757 548 L 756 551 L 751 560 L 751 562 L 744 575 L 744 577 L 738 588 L 738 590 L 733 599 L 733 601 L 725 616 L 725 618 L 722 623 L 722 625 L 716 636 L 716 638 L 710 649 L 710 651 L 705 660 L 705 662 L 700 671 L 700 673 L 695 682 L 695 684 L 689 695 L 689 697 L 688 699 L 684 700 L 684 698 L 682 695 L 682 693 L 680 690 L 680 688 L 677 683 L 677 681 L 675 678 L 675 676 L 673 673 L 673 671 L 671 668 L 671 666 L 668 661 L 668 659 L 666 656 L 666 654 L 663 649 L 663 647 L 660 642 L 660 640 L 657 635 L 657 633 L 655 630 L 655 628 L 652 623 L 652 621 L 650 618 L 650 616 L 647 611 L 647 609 L 645 606 L 645 604 L 642 599 L 642 597 L 640 594 L 640 592 L 639 590 L 638 588 L 638 590 L 637 593 L 636 596 L 635 599 L 634 602 L 633 605 L 632 608 L 631 611 L 629 615 L 629 618 L 628 621 L 627 624 L 626 627 L 625 630 L 624 633 L 623 636 L 622 640 L 620 643 L 620 645 L 618 649 L 618 651 L 617 655 L 616 658 L 614 661 L 613 664 L 612 667 L 611 670 L 611 673 L 609 676 L 608 679 L 607 682 L 606 685 L 605 688 L 604 691 L 603 694 L 603 697 L 601 700 L 601 703 L 600 706 L 599 709 L 597 712 L 596 716 L 595 719 L 595 721 L 598 721 L 603 722 L 607 723 L 611 724 L 614 725 L 617 726 L 622 729 L 624 729 L 640 737 L 643 739 L 646 741 L 650 744 L 655 748 L 667 760 L 672 766 L 675 770 L 676 773 L 678 775 L 680 778 L 683 784 L 684 786 L 685 784 L 686 781 L 688 779 L 689 776 L 691 774 L 694 767 L 696 765 L 698 760 L 700 758 L 702 753 L 704 751 L 706 746 L 708 744 L 711 737 L 713 735 L 716 728 L 718 726 L 721 719 L 723 717 L 726 710 L 728 708 L 732 699 L 734 697 L 737 690 L 739 688 L 743 679 L 745 677 L 748 670 L 750 668 L 754 659 L 756 657 L 762 644 L 764 642 L 772 625 L 774 623 L 803 565 L 803 563 L 811 548 L 811 546 L 817 535 L 817 533 L 819 530 L 819 528 L 823 521 L 823 519 L 825 516 L 825 514 L 827 511 L 827 509 L 829 506 L 829 504 L 831 501 L 831 499 L 833 496 L 834 493 L 834 491 L 836 488 L 837 485 L 838 482 L 838 480 L 840 477 L 841 474 L 842 471 L 843 468 L 844 465 L 845 462 L 846 458 L 847 455 L 848 452 L 849 449 L 850 445 L 851 441 L 852 438 L 853 434 L 854 430 L 855 426 L 856 422 L 857 417 L 858 413 L 859 408 L 860 403 L 861 397 L 862 392 L 863 386 L 864 378 L 865 370 L 866 359 L 867 339 L 867 317 L 866 298 L 865 287 L 864 278 L 863 270 L 862 265 L 861 259 L 860 253 L 859 248 L 858 244 L 857 240 L 856 235 L 855 231 L 854 227 L 853 224 L 852 220 L 851 217 L 850 214 L 849 210 L 848 207 L 847 204 L 846 202 Z M 718 337 L 723 337 L 727 338 L 731 339 L 736 340 L 739 341 L 742 342 L 745 343 L 748 344 L 751 345 L 759 349 L 761 351 L 764 352 L 768 355 L 780 367 L 783 371 L 788 381 L 789 384 L 790 388 L 791 393 L 791 409 L 790 414 L 789 418 L 788 421 L 782 433 L 780 436 L 776 441 L 771 446 L 766 450 L 763 452 L 760 454 L 754 457 L 751 458 L 748 459 L 744 460 L 738 461 L 723 461 L 717 460 L 712 459 L 709 458 L 706 457 L 703 456 L 700 455 L 697 453 L 695 453 L 681 446 L 679 444 L 672 441 L 671 438 L 673 435 L 673 433 L 679 422 L 679 420 L 684 411 L 684 409 L 688 402 L 688 400 L 694 389 L 694 387 L 697 382 L 697 380 L 703 369 L 703 367 L 708 358 L 708 356 L 714 345 L 714 343 L 716 339 Z" fill="#111111" fill-rule="evenodd"/>
</svg>
